<svg width="40" height="40" viewBox="0 0 40 40" fill="none" xmlns="http://www.w3.org/2000/svg">
<mask id="path-1-inside-1_1_854" fill="white">
<path fill-rule="evenodd" clip-rule="evenodd" d="M15.894 0.398877C26.6058 -1.78661 37.0307 5.22878 39.188 16.0548C39.242 16.3256 39.0662 16.5889 38.7954 16.6429C38.5245 16.6968 38.2612 16.521 38.2073 16.2502C36.1563 5.95743 26.2527 -0.693974 16.0939 1.37869C15.8234 1.4339 15.5593 1.25931 15.5041 0.988739C15.4489 0.718171 15.6235 0.454081 15.894 0.398877ZM13.6668 1.50974C13.762 1.76892 13.6292 2.05627 13.37 2.15156C4.78859 5.30655 -0.462285 14.4231 1.39917 23.7646C1.45314 24.0354 1.27734 24.2987 1.00652 24.3527C0.735706 24.4067 0.472417 24.2309 0.418452 23.96C-1.53921 14.1357 3.98118 4.53795 13.0249 1.21299C13.2841 1.1177 13.5715 1.25056 13.6668 1.50974Z"/>
</mask>
<path d="M39.188 16.0548L40.1687 15.8594V15.8594L39.188 16.0548ZM15.894 0.398877L15.6941 -0.580937L15.894 0.398877ZM38.7954 16.6429L38.9908 17.6236L38.7954 16.6429ZM38.2073 16.2502L39.188 16.0548L38.2073 16.2502ZM16.0939 1.37869L16.2938 2.35851H16.2938L16.0939 1.37869ZM15.5041 0.988739L16.4839 0.78883L15.5041 0.988739ZM13.37 2.15156L13.7151 3.09014L13.7151 3.09014L13.37 2.15156ZM13.6668 1.50974L14.6053 1.16467L14.6053 1.16467L13.6668 1.50974ZM1.39917 23.7646L2.37989 23.5692L1.39917 23.7646ZM1.00652 24.3527L0.811101 23.372L1.00652 24.3527ZM0.418452 23.96L-0.562266 24.1555H-0.562266L0.418452 23.96ZM13.0249 1.21299L13.37 2.15156L13.37 2.15156L13.0249 1.21299ZM40.1687 15.8594C37.9052 4.50022 26.9589 -2.87927 15.6941 -0.580937L16.0939 1.37869C26.2526 -0.693958 36.1563 5.95735 38.2073 16.2502L40.1687 15.8594ZM38.9908 17.6236C39.8032 17.4617 40.3306 16.6718 40.1687 15.8594L38.2073 16.2502C38.1533 15.9794 38.3291 15.7161 38.5999 15.6621L38.9908 17.6236ZM37.2266 16.4456C37.3885 17.2581 38.1783 17.7855 38.9908 17.6236L38.5999 15.6621C38.8708 15.6082 39.134 15.784 39.188 16.0548L37.2266 16.4456ZM16.2938 2.35851C25.8997 0.39865 35.2818 6.68615 37.2266 16.4456L39.188 16.0548C37.0307 5.2287 26.6057 -1.7866 15.894 0.398877L16.2938 2.35851ZM14.5243 1.18865C14.6899 2.00035 15.4821 2.52412 16.2938 2.35851L15.894 0.398877C16.1646 0.343674 16.4287 0.518262 16.4839 0.78883L14.5243 1.18865ZM15.6941 -0.580937C14.8824 -0.415327 14.3587 0.376944 14.5243 1.18865L16.4839 0.78883C16.5391 1.0594 16.3645 1.32349 16.0939 1.37869L15.6941 -0.580937ZM13.7151 3.09014C14.4926 2.80427 14.8912 1.94221 14.6053 1.16467L12.7282 1.85481C12.6329 1.59563 12.7658 1.30828 13.0249 1.21299L13.7151 3.09014ZM2.37989 23.5692C0.614641 14.7105 5.59599 6.07515 13.7151 3.09014L13.0249 1.21299C3.98118 4.53795 -1.53921 14.1357 0.418452 23.96L2.37989 23.5692ZM1.20195 25.3334C2.0144 25.1715 2.54178 24.3817 2.37989 23.5692L0.418452 23.96C0.364488 23.6892 0.540281 23.4259 0.811101 23.372L1.20195 25.3334ZM-0.562266 24.1555C-0.400371 24.9679 0.389494 25.4953 1.20195 25.3334L0.811101 23.372C1.08192 23.318 1.34521 23.4938 1.39917 23.7646L-0.562266 24.1555ZM12.6799 0.27441C3.17378 3.76935 -2.61614 13.8483 -0.562266 24.1555L1.39917 23.7646C-0.462285 14.4231 4.78859 5.30655 13.37 2.15156L12.6799 0.27441ZM14.6053 1.16467C14.3195 0.387127 13.4574 -0.0114572 12.6799 0.27441L13.37 2.15156C13.1108 2.24685 12.8235 2.11399 12.7282 1.85481L14.6053 1.16467Z" fill="#6C6CE6" mask="url(#path-1-inside-1_1_854)"/>
<path d="M39.0809 19.3674C39.0451 18.3037 38.9227 17.2288 38.708 16.1511" stroke="#6C6CE6" stroke-linecap="round"/>
<path d="M0.919174 23.8607C0.975065 24.1407 1.03643 24.4181 1.10356 24.6929" stroke="#6C6CE6" stroke-linecap="round"/>
<mask id="path-5-inside-2_1_854" fill="white">
<path fill-rule="evenodd" clip-rule="evenodd" d="M17.119 35.6952C17.3528 35.842 17.4234 36.1507 17.2765 36.3845C16.6589 37.3681 15.9662 38.3031 15.2047 39.1802C15.0236 39.3887 14.7078 39.4109 14.4993 39.2299C14.2908 39.0488 14.2686 38.733 14.4496 38.5245C15.1773 37.6865 15.8393 36.7929 16.4296 35.8527C16.5765 35.6189 16.8851 35.5483 17.119 35.6952ZM19.7107 19.5163C19.9815 19.4624 20.2448 19.6382 20.2987 19.909C21.3551 25.2101 20.4711 30.4525 18.1417 34.8818C18.0132 35.1262 17.7108 35.2202 17.4664 35.0916C17.222 34.9631 17.1281 34.6608 17.2566 34.4164C19.4831 30.1828 20.3281 25.1731 19.318 20.1044C19.2641 19.8336 19.4399 19.5703 19.7107 19.5163Z"/>
</mask>
<path d="M17.2765 36.3845L16.4296 35.8527L17.2765 36.3845ZM15.2047 39.1802L14.4496 38.5245H14.4496L15.2047 39.1802ZM14.4993 39.2299L15.155 38.4748L14.4993 39.2299ZM14.4496 38.5245L15.2047 39.1802H15.2047L14.4496 38.5245ZM16.4296 35.8527L15.5828 35.321H15.5828L16.4296 35.8527ZM20.2987 19.909L21.2795 19.7135V19.7135L20.2987 19.909ZM19.7107 19.5163L19.9061 20.497L19.7107 19.5163ZM18.1417 34.8818L19.0268 35.3473L18.1417 34.8818ZM17.4664 35.0916L17.9319 34.2066L17.9319 34.2066L17.4664 35.0916ZM17.2566 34.4164L18.1417 34.8818L17.2566 34.4164ZM19.318 20.1044L20.2987 19.909V19.909L19.318 20.1044ZM18.1234 36.9163C18.5639 36.2147 18.3523 35.2889 17.6508 34.8483L16.5872 36.5421C16.3533 36.3952 16.2828 36.0866 16.4296 35.8527L18.1234 36.9163ZM15.9598 39.8358C16.7552 38.9198 17.4785 37.9433 18.1234 36.9163L16.4296 35.8527C15.8393 36.7929 15.1773 37.6865 14.4496 38.5245L15.9598 39.8358ZM13.8437 39.985C14.4692 40.5281 15.4166 40.4613 15.9598 39.8358L14.4496 38.5245C14.6307 38.316 14.9465 38.2938 15.155 38.4748L13.8437 39.985ZM13.6945 37.8689C13.1514 38.4944 13.2182 39.4418 13.8437 39.985L15.155 38.4748C15.3635 38.6559 15.3857 38.9717 15.2047 39.1802L13.6945 37.8689ZM15.5828 35.321C15.0197 36.2177 14.3883 37.0699 13.6945 37.8689L15.2047 39.1802C15.9662 38.3031 16.6589 37.3681 17.2765 36.3845L15.5828 35.321ZM17.6508 34.8483C16.9492 34.4078 16.0233 34.6194 15.5828 35.321L17.2765 36.3845C17.1297 36.6184 16.821 36.6889 16.5872 36.5421L17.6508 34.8483ZM21.2795 19.7135C21.1176 18.9011 20.3277 18.3737 19.5152 18.5356L19.9061 20.497C19.6353 20.551 19.372 20.3752 19.318 20.1044L21.2795 19.7135ZM19.0268 35.3473C21.4591 30.7222 22.3821 25.2471 21.2795 19.7135L19.318 20.1044C20.328 25.1731 19.4831 30.1828 17.2566 34.4164L19.0268 35.3473ZM17.001 35.9767C17.7342 36.3623 18.6412 36.0805 19.0268 35.3473L17.2566 34.4164C17.3852 34.172 17.6875 34.078 17.9319 34.2066L17.001 35.9767ZM16.3716 33.9509C15.986 34.6841 16.2678 35.5911 17.001 35.9767L17.9319 34.2066C18.1763 34.3351 18.2702 34.6374 18.1417 34.8818L16.3716 33.9509ZM18.3373 20.2998C19.301 25.1361 18.495 29.9132 16.3716 33.9509L18.1417 34.8818C20.4711 30.4525 21.3551 25.2101 20.2987 19.909L18.3373 20.2998ZM19.5152 18.5356C18.7028 18.6975 18.1754 19.4874 18.3373 20.2998L20.2987 19.909C20.3527 20.1798 20.1769 20.4431 19.9061 20.497L19.5152 18.5356Z" fill="#6C6CE6" mask="url(#path-5-inside-2_1_854)"/>
<mask id="path-7-inside-3_1_854" fill="white">
<path fill-rule="evenodd" clip-rule="evenodd" d="M21.9772 30.098C22.2444 30.168 22.4042 30.4413 22.3341 30.7084C21.4752 33.9857 19.964 37.0385 17.9213 39.6835C17.7525 39.9021 17.4385 39.9424 17.2199 39.7736C17.0014 39.6048 16.961 39.2908 17.1298 39.0723C19.0911 36.5327 20.5422 33.6015 21.3668 30.4549C21.4368 30.1878 21.7101 30.028 21.9772 30.098Z"/>
</mask>
<path d="M22.3341 30.7084L21.3668 30.4549V30.4549L22.3341 30.7084ZM21.9772 30.098L22.2308 29.1307V29.1307L21.9772 30.098ZM17.9213 39.6835L17.1298 39.0723H17.1298L17.9213 39.6835ZM17.2199 39.7736L17.8312 38.9822L17.8312 38.9822L17.2199 39.7736ZM17.1298 39.0723L16.3384 38.461H16.3384L17.1298 39.0723ZM21.3668 30.4549L20.3995 30.2014L20.3995 30.2014L21.3668 30.4549ZM23.3015 30.9619C23.5115 30.1606 23.0321 29.3407 22.2308 29.1307L21.7237 31.0653C21.4566 30.9953 21.2968 30.722 21.3668 30.4549L23.3015 30.9619ZM18.7127 40.2948C20.837 37.5442 22.4083 34.37 23.3015 30.9619L21.3668 30.4549C20.5422 33.6015 19.0911 36.5327 17.1298 39.0723L18.7127 40.2948ZM16.6087 40.5651C17.2643 41.0714 18.2063 40.9504 18.7127 40.2948L17.1298 39.0723C17.2986 38.8537 17.6126 38.8134 17.8312 38.9822L16.6087 40.5651ZM16.3384 38.461C15.832 39.1167 15.953 40.0587 16.6087 40.5651L17.8312 38.9822C18.0497 39.151 18.09 39.465 17.9213 39.6835L16.3384 38.461ZM20.3995 30.2014C19.6091 33.2172 18.2182 36.027 16.3384 38.461L17.9213 39.6835C19.964 37.0385 21.4752 33.9857 22.3341 30.7084L20.3995 30.2014ZM22.2308 29.1307C21.4294 28.9206 20.6095 29.4 20.3995 30.2014L22.3341 30.7084C22.2641 30.9755 21.9908 31.1353 21.7237 31.0653L22.2308 29.1307Z" fill="#6C6CE6" mask="url(#path-7-inside-3_1_854)"/>
<path d="M22.3167 28.4034C22.7946 25.54 22.7716 22.5414 22.1704 19.5249C21.9135 18.1956 20.6362 17.3366 19.3247 17.6043C18.0136 17.8719 17.1649 19.1643 17.4293 20.4914C18.7559 27.06 16.6366 33.5255 12.3354 37.9886" stroke="#6C6CE6" stroke-linecap="round"/>
<mask id="path-10-inside-4_1_854" fill="white">
<path fill-rule="evenodd" clip-rule="evenodd" d="M22.8412 35.095C23.0925 35.2094 23.2035 35.5059 23.0891 35.7572C22.4497 37.1619 21.6945 38.5085 20.8332 39.782C20.6786 40.0108 20.3677 40.0708 20.139 39.9161C19.9102 39.7614 19.8502 39.4506 20.0049 39.2218C20.8349 37.9945 21.5627 36.6968 22.1789 35.3429C22.2933 35.0916 22.5898 34.9806 22.8412 35.095ZM18.749 14.7271C21.64 14.1371 24.4482 16.0313 25.0229 18.9465C26.0831 24.2677 25.5369 29.5407 23.7222 34.25C23.6229 34.5077 23.3335 34.6361 23.0758 34.5368C22.8181 34.4375 22.6898 34.1481 22.789 33.8904C24.5377 29.3526 25.0644 24.2717 24.0421 19.1414L24.0419 19.1403C23.5728 16.7602 21.2873 15.2297 18.9489 15.7069C18.6784 15.7621 18.4143 15.5875 18.359 15.3169C18.3038 15.0464 18.4784 14.7823 18.749 14.7271ZM17.607 15.6237C17.7578 15.855 17.6926 16.1648 17.4612 16.3156C16.0067 17.2638 15.1962 19.0499 15.5594 20.8741C16.4438 25.2319 15.6358 29.5414 13.6011 33.1147C13.4644 33.3547 13.1591 33.4384 12.9192 33.3018C12.6792 33.1651 12.5955 32.8598 12.7321 32.6199C14.6522 29.2479 15.4138 25.1837 14.5792 21.0722L14.5789 21.0705C14.1335 18.836 15.1258 16.6443 16.9151 15.4779C17.1465 15.3271 17.4562 15.3923 17.607 15.6237ZM12.6226 33.7723C12.8493 33.9301 12.9051 34.2417 12.7474 34.4683C12.0618 35.4535 11.2763 36.3685 10.4019 37.1962C10.2014 37.3861 9.8849 37.3774 9.69506 37.1769C9.50522 36.9763 9.51389 36.6599 9.71443 36.47C10.5388 35.6896 11.2797 34.8267 11.9266 33.8971C12.0843 33.6705 12.396 33.6146 12.6226 33.7723Z"/>
</mask>
<path d="M23.0891 35.7572L22.1789 35.3429L23.0891 35.7572ZM20.8332 39.782L21.6616 40.3422L20.8332 39.782ZM20.139 39.9161L20.6992 39.0877H20.6992L20.139 39.9161ZM20.0049 39.2218L19.1765 38.6616L20.0049 39.2218ZM22.1789 35.3429L21.2688 34.9287L22.1789 35.3429ZM25.0229 18.9465L24.0418 19.1399L24.0422 19.1419L25.0229 18.9465ZM18.749 14.7271L18.9489 15.7069L18.749 14.7271ZM23.7222 34.25L24.6553 34.6096L24.6553 34.6096L23.7222 34.25ZM23.0758 34.5368L22.7162 35.4699L22.7162 35.4699L23.0758 34.5368ZM22.789 33.8904L23.7222 34.25V34.25L22.789 33.8904ZM24.0421 19.1414L23.0612 19.3359L23.0613 19.3368L24.0421 19.1414ZM24.0419 19.1403L23.0607 19.3337L23.0609 19.3348L24.0419 19.1403ZM18.9489 15.7069L18.749 14.7271L18.9489 15.7069ZM18.359 15.3169L19.3388 15.117L18.359 15.3169ZM17.4612 16.3156L16.9151 15.4779L16.9151 15.4779L17.4612 16.3156ZM17.607 15.6237L16.7693 16.1698L16.7693 16.1698L17.607 15.6237ZM15.5594 20.8741L14.5786 21.0694L14.5794 21.073L15.5594 20.8741ZM13.6011 33.1147L12.7321 32.6199H12.7321L13.6011 33.1147ZM12.9192 33.3018L12.4243 34.1708L12.9192 33.3018ZM12.7321 32.6199L13.6011 33.1147L13.6011 33.1147L12.7321 32.6199ZM14.5792 21.0722L13.5989 21.2695L13.5992 21.2711L14.5792 21.0722ZM14.5789 21.0705L13.5981 21.2659L13.5985 21.2677L14.5789 21.0705ZM16.9151 15.4779L16.369 14.6401V14.6401L16.9151 15.4779ZM12.7474 34.4683L13.5682 35.0396L12.7474 34.4683ZM12.6226 33.7723L12.0514 34.5931H12.0514L12.6226 33.7723ZM10.4019 37.1962L11.0894 37.9224L10.4019 37.1962ZM9.69506 37.1769L8.96885 37.8643L9.69506 37.1769ZM9.71443 36.47L10.4019 37.1962L9.71443 36.47ZM11.9266 33.8971L11.1058 33.3259H11.1058L11.9266 33.8971ZM23.9993 36.1715C24.3424 35.4175 24.0094 34.528 23.2554 34.1848L22.4269 36.0051C22.1756 35.8907 22.0645 35.5943 22.1789 35.3429L23.9993 36.1715ZM21.6616 40.3422C22.5541 39.0225 23.3367 37.6271 23.9993 36.1714L22.1789 35.3429C21.5627 36.6968 20.8349 37.9945 20.0049 39.2218L21.6616 40.3422ZM19.5788 40.7445C20.265 41.2085 21.1975 41.0285 21.6616 40.3422L20.0049 39.2218C20.1596 38.9931 20.4704 38.933 20.6992 39.0877L19.5788 40.7445ZM19.1765 38.6616C18.7124 39.3478 18.8925 40.2804 19.5788 40.7445L20.6992 39.0877C20.9279 39.2424 20.9879 39.5533 20.8332 39.782L19.1765 38.6616ZM21.2688 34.9287C20.6757 36.2316 19.9753 37.4805 19.1765 38.6616L20.8332 39.782C21.6945 38.5085 22.4497 37.1619 23.0891 35.7572L21.2688 34.9287ZM23.2554 34.1848C22.5014 33.8416 21.612 34.1747 21.2688 34.9287L23.0891 35.7572C22.9747 36.0085 22.6782 36.1195 22.4269 36.0051L23.2554 34.1848ZM26.004 18.7531C25.3238 15.3029 21.9931 13.0444 18.549 13.7473L18.9489 15.7069C21.2869 15.2297 23.5725 16.7597 24.0418 19.1399L26.004 18.7531ZM24.6553 34.6096C26.5362 29.7287 27.1019 24.2634 26.0036 18.7511L24.0422 19.1419C25.0643 24.272 24.5377 29.3527 22.789 33.8904L24.6553 34.6096ZM22.7162 35.4699C23.4893 35.7678 24.3574 35.3826 24.6553 34.6096L22.789 33.8904C22.8883 33.6328 23.1777 33.5044 23.4354 33.6037L22.7162 35.4699ZM21.8559 33.5308C21.558 34.3039 21.9432 35.172 22.7162 35.4699L23.4354 33.6037C23.6931 33.703 23.8215 33.9923 23.7222 34.25L21.8559 33.5308ZM23.0613 19.3368C24.0456 24.276 23.5385 29.1646 21.8559 33.5308L23.7222 34.25C25.537 29.5405 26.0832 24.2674 25.0228 18.946L23.0613 19.3368ZM23.0609 19.3348L23.0612 19.3359L25.023 18.9469L25.0228 18.9459L23.0609 19.3348ZM19.1489 16.6867C20.9348 16.3222 22.6973 17.4891 23.0607 19.3337L25.023 18.947C24.4484 16.0312 21.6398 14.1371 18.749 14.7271L19.1489 16.6867ZM17.3792 15.5169C17.5449 16.3286 18.3372 16.8523 19.1489 16.6867L18.749 14.7271C19.0195 14.6718 19.2836 14.8464 19.3388 15.117L17.3792 15.5169ZM18.549 13.7473C17.7373 13.9129 17.2136 14.7052 17.3792 15.5169L19.3388 15.117C19.3941 15.3876 19.2195 15.6517 18.9489 15.7069L18.549 13.7473ZM18.0073 17.1533C18.7013 16.7009 18.8972 15.7716 18.4448 15.0776L16.7693 16.1698C16.6185 15.9384 16.6838 15.6287 16.9151 15.4779L18.0073 17.1533ZM16.5401 20.6788C16.2585 19.2644 16.8874 17.8834 18.0073 17.1533L16.9151 15.4779C15.126 16.6442 14.1338 18.8354 14.5786 21.0694L16.5401 20.6788ZM14.4701 33.6095C16.6196 29.8347 17.4739 25.2796 16.5394 20.6752L14.5794 21.073C15.4137 25.1842 14.6521 29.2482 12.7321 32.6199L14.4701 33.6095ZM12.4243 34.1708C13.1442 34.5807 14.0601 34.3294 14.4701 33.6095L12.7321 32.6199C12.8687 32.3799 13.174 32.2961 13.414 32.4328L12.4243 34.1708ZM11.8631 32.125C11.4532 32.8449 11.7045 33.7608 12.4243 34.1708L13.414 32.4328C13.654 32.5694 13.7377 32.8747 13.6011 33.1147L11.8631 32.125ZM13.5992 21.2711C14.3838 25.136 13.6684 28.9547 11.8631 32.125L13.6011 33.1147C15.636 29.5412 16.4439 25.2313 15.5592 20.8732L13.5992 21.2711ZM13.5985 21.2677L13.5989 21.2695L15.5595 20.8749L15.5592 20.8732L13.5985 21.2677ZM16.369 14.6401C14.2453 16.0245 13.071 18.6213 13.5981 21.2659L15.5596 20.875C15.1959 19.0506 16.0064 17.264 17.4612 16.3156L16.369 14.6401ZM18.4448 15.0776C17.9924 14.3836 17.063 14.1877 16.369 14.6401L17.4612 16.3156C17.2299 16.4664 16.9201 16.4011 16.7693 16.1698L18.4448 15.0776ZM13.5682 35.0396C14.0414 34.3596 13.8738 33.4247 13.1938 32.9515L12.0514 34.5931C11.8247 34.4354 11.7689 34.1238 11.9266 33.8971L13.5682 35.0396ZM11.0894 37.9224C12.0138 37.0474 12.8439 36.0804 13.5682 35.0396L11.9266 33.8971C11.2797 34.8267 10.5388 35.6896 9.71443 36.47L11.0894 37.9224ZM8.96885 37.8643C9.53837 38.4659 10.4878 38.492 11.0894 37.9224L9.71443 36.47C9.91497 36.2802 10.2314 36.2888 10.4213 36.4894L8.96885 37.8643ZM9.02696 35.7438C8.42535 36.3133 8.39933 37.2627 8.96885 37.8643L10.4213 36.4894C10.6111 36.6899 10.6024 37.0064 10.4019 37.1962L9.02696 35.7438ZM11.1058 33.3259C10.4976 34.1998 9.8013 35.0108 9.02696 35.7438L10.4019 37.1962C11.2763 36.3685 12.0618 35.4535 12.7474 34.4683L11.1058 33.3259ZM13.1938 32.9515C12.5138 32.4783 11.579 32.6459 11.1058 33.3259L12.7474 34.4683C12.5897 34.695 12.2781 34.7509 12.0514 34.5931L13.1938 32.9515Z" fill="#6C6CE6" mask="url(#path-10-inside-4_1_854)"/>
<mask id="path-12-inside-5_1_854" fill="white">
<path fill-rule="evenodd" clip-rule="evenodd" d="M23.4924 39.1488C26.9651 33.1586 28.3578 25.9043 26.8944 18.5612L26.8979 18.5597C26.1077 14.595 22.2913 12.0291 18.3731 12.8285C14.4549 13.628 11.919 17.4897 12.7093 21.4546L12.7225 21.4523C13.7911 26.8151 11.816 32.0837 8.00085 35.4271"/>
</mask>
<path d="M22.6273 38.6473C22.3503 39.1251 22.513 39.737 22.9908 40.014C23.4686 40.291 24.0805 40.1282 24.3575 39.6504L22.6273 38.6473ZM26.8944 18.5612L26.5059 17.6397L25.7543 17.9567L25.9137 18.7566L26.8944 18.5612ZM26.8979 18.5597L27.2864 19.4812L28.038 19.1642L27.8786 18.3643L26.8979 18.5597ZM18.3731 12.8285L18.5731 13.8084L18.5731 13.8084L18.3731 12.8285ZM12.7093 21.4546L11.7286 21.6501L11.9197 22.6089L12.8826 22.4395L12.7093 21.4546ZM12.7225 21.4523L13.7032 21.2569L13.5122 20.298L12.5492 20.4674L12.7225 21.4523ZM7.34178 34.675C6.92642 35.039 6.88478 35.6708 7.24878 36.0861C7.61278 36.5015 8.24457 36.5431 8.65993 36.1791L7.34178 34.675ZM24.3575 39.6504C27.9478 33.4574 29.3878 25.9561 27.8751 18.3657L25.9137 18.7566C27.3278 25.8525 25.9824 32.8599 22.6273 38.6473L24.3575 39.6504ZM27.2829 19.4826L27.2864 19.4812L26.5093 17.6383L26.5059 17.6397L27.2829 19.4826ZM27.8786 18.3643C26.9822 13.8664 22.6444 10.9364 18.1732 11.8487L18.5731 13.8084C21.9382 13.1217 25.2333 15.3236 25.9171 18.7552L27.8786 18.3643ZM18.1732 11.8487C13.7057 12.7603 10.8327 17.1552 11.7286 21.6501L13.69 21.2591C13.0053 17.8242 15.2041 14.4958 18.5731 13.8084L18.1732 11.8487ZM12.8826 22.4395L12.8958 22.4371L12.5492 20.4674L12.536 20.4697L12.8826 22.4395ZM11.7418 21.6477C12.7382 26.6485 10.897 31.5594 7.34178 34.675L8.65993 36.1791C12.7351 32.6079 14.8439 26.9818 13.7032 21.2569L11.7418 21.6477Z" fill="#6C6CE6" mask="url(#path-12-inside-5_1_854)"/>
<mask id="path-14-inside-6_1_854" fill="white">
<path fill-rule="evenodd" clip-rule="evenodd" d="M26.7187 38.2135C29.6242 32.1787 30.6688 25.1672 29.2564 18.0791C28.2049 12.7943 23.1189 9.37495 17.8974 10.4403C12.6756 11.5058 9.2962 16.6522 10.3491 21.936C11.2744 26.5208 9.51573 31.024 6.1709 33.7962"/>
</mask>
<path d="M25.8177 37.7797C25.5781 38.2773 25.7873 38.8749 26.2849 39.1145C26.7825 39.3541 27.3801 39.1449 27.6197 38.6473L25.8177 37.7797ZM29.2564 18.0791L28.2757 18.2743L28.2757 18.2746L29.2564 18.0791ZM17.8974 10.4403L17.6975 9.46048L17.6975 9.46048L17.8974 10.4403ZM10.3491 21.936L9.36834 22.1315L9.36882 22.1339L10.3491 21.936ZM5.53278 33.0262C5.10756 33.3787 5.04854 34.0091 5.40096 34.4343C5.75338 34.8595 6.38379 34.9185 6.80902 34.5661L5.53278 33.0262ZM27.6197 38.6473C30.6161 32.4236 31.6934 25.1917 30.2372 17.8837L28.2757 18.2746C29.6443 25.1427 28.6322 31.9338 25.8177 37.7797L27.6197 38.6473ZM30.2372 17.884C29.0795 12.0657 23.472 8.2823 17.6975 9.46048L18.0973 11.4201C22.7658 10.4676 27.3302 13.5229 28.2757 18.2743L30.2372 17.884ZM17.6975 9.46048C11.9264 10.638 8.20989 16.3177 9.36834 22.1315L11.3298 21.7406C10.3825 16.9867 13.4248 12.3735 18.0973 11.4201L17.6975 9.46048ZM9.36882 22.1339C10.2188 26.3452 8.60402 30.4808 5.53278 33.0262L6.80902 34.5661C10.4274 31.5672 12.33 26.6964 11.3293 21.7382L9.36882 22.1339Z" fill="#6C6CE6" mask="url(#path-14-inside-6_1_854)"/>
<mask id="path-16-inside-7_1_854" fill="white">
<path fill-rule="evenodd" clip-rule="evenodd" d="M8.09207 22.8783C8.36685 22.8509 8.61183 23.0514 8.63924 23.3262C8.99178 26.8594 7.50336 30.2292 4.88931 32.3541C4.67504 32.5282 4.36013 32.4957 4.18594 32.2815C4.01176 32.0672 4.04427 31.7523 4.25854 31.5781C6.61811 29.66 7.96255 26.6162 7.64418 23.4255C7.61677 23.1507 7.81729 22.9058 8.09207 22.8783ZM27.2886 11.0976C24.6833 8.85721 21.1291 7.80569 17.5214 8.5418L17.4408 8.14674L17.5214 8.5418C11.6372 9.74236 7.69902 15.2758 8.31156 21.2082C8.33992 21.4829 8.14024 21.7285 7.86556 21.7569C7.59088 21.7853 7.34521 21.5856 7.31685 21.3109C6.65294 14.881 10.9198 8.86814 17.3215 7.56199C21.2466 6.76112 25.1123 7.90718 27.9406 10.3394C28.15 10.5195 28.1737 10.8351 27.9937 11.0445C27.8136 11.2539 27.4979 11.2777 27.2886 11.0976ZM28.658 11.7158C28.8691 11.5378 29.1846 11.5646 29.3626 11.7757C30.702 13.3642 31.6718 15.3093 32.1081 17.4988L31.6178 17.5965L32.1081 17.4988C32.7215 20.5753 32.9111 23.6391 32.7175 26.6285C32.6997 26.9041 32.4619 27.113 32.1863 27.0952C31.9107 27.0773 31.7018 26.8395 31.7196 26.5639C31.9076 23.6607 31.7235 20.6843 31.1274 17.6943L31.1274 17.6943C30.7247 15.6738 29.831 13.8825 28.5981 12.4204C28.4201 12.2092 28.4469 11.8938 28.658 11.7158ZM32.1325 27.7043C32.4069 27.7351 32.6044 27.9825 32.5736 28.2569C32.2466 31.1727 31.5552 34.0047 30.5385 36.6939C30.4409 36.9522 30.1523 37.0825 29.894 36.9848C29.6357 36.8872 29.5055 36.5986 29.6031 36.3403C30.5907 33.728 31.2623 30.9773 31.5798 28.1455C31.6106 27.8711 31.858 27.6735 32.1325 27.7043Z"/>
</mask>
<path d="M8.63924 23.3262L9.6343 23.2269L8.63924 23.3262ZM8.09207 22.8783L8.19136 23.8734L8.09207 22.8783ZM4.88931 32.3541L5.52008 33.13H5.52008L4.88931 32.3541ZM4.18594 32.2815L4.96191 31.6507H4.96191L4.18594 32.2815ZM4.25854 31.5781L4.88931 32.3541H4.88931L4.25854 31.5781ZM7.64418 23.4255L8.63924 23.3262L7.64418 23.4255ZM17.5214 8.5418L16.5416 8.74172L16.7415 9.72153L17.7213 9.52161L17.5214 8.5418ZM27.2886 11.0976L27.9406 10.3394V10.3394L27.2886 11.0976ZM17.5214 8.5418L17.7213 9.52162L18.7011 9.3217L18.5012 8.34189L17.5214 8.5418ZM8.31156 21.2082L9.30627 21.1055L8.31156 21.2082ZM7.86556 21.7569L7.76286 20.7622L7.76285 20.7622L7.86556 21.7569ZM7.31685 21.3109L6.32214 21.4136L7.31685 21.3109ZM17.3215 7.56199L17.5214 8.5418L17.5214 8.5418L17.3215 7.56199ZM27.9406 10.3394L27.2886 11.0976L27.2886 11.0976L27.9406 10.3394ZM27.9937 11.0445L27.2355 10.3925L27.2355 10.3925L27.9937 11.0445ZM29.3626 11.7757L30.1271 11.1311L29.3626 11.7757ZM28.658 11.7158L28.0134 10.9513V10.9513L28.658 11.7158ZM32.7175 26.6285L31.7196 26.5639L32.7175 26.6285ZM31.7196 26.5639L30.7217 26.4993L31.7196 26.5639ZM31.1274 17.6943L30.1463 17.8879L30.1467 17.8898L31.1274 17.6943ZM31.1274 17.6943L32.1085 17.5006L32.1081 17.4988L31.1274 17.6943ZM28.5981 12.4204L27.8336 13.065L28.5981 12.4204ZM32.5736 28.2569L31.5798 28.1455L32.5736 28.2569ZM32.1325 27.7043L32.2439 26.7106L32.1325 27.7043ZM30.5385 36.6939L31.4739 37.0475L30.5385 36.6939ZM29.894 36.9848L29.5404 37.9202H29.5404L29.894 36.9848ZM29.6031 36.3403L30.5385 36.6939L29.6031 36.3403ZM31.5798 28.1455L30.5861 28.034L31.5798 28.1455ZM9.6343 23.2269C9.55205 22.4026 8.81712 21.801 7.99278 21.8833L8.19136 23.8734C7.91658 23.9008 7.6716 23.7003 7.64418 23.4255L9.6343 23.2269ZM5.52008 33.13C8.38858 30.7983 10.021 27.1026 9.6343 23.2269L7.64418 23.4255C7.96255 26.6162 6.61814 29.66 4.25854 31.5781L5.52008 33.13ZM3.40997 32.9122C3.93252 33.5551 4.87725 33.6526 5.52008 33.13L4.25855 31.5781C4.47282 31.4039 4.78773 31.4364 4.96191 31.6507L3.40997 32.9122ZM3.62778 30.8021C2.98494 31.3247 2.88743 32.2694 3.40997 32.9122L4.96191 31.6507C5.1361 31.865 5.10359 32.1799 4.88931 32.3541L3.62778 30.8021ZM6.64912 23.5248C6.93333 26.3731 5.73283 29.091 3.62778 30.8021L4.88931 32.3541C7.5034 30.2291 8.99178 26.8594 8.63924 23.3262L6.64912 23.5248ZM7.99278 21.8833C7.16845 21.9655 6.56687 22.7005 6.64912 23.5248L8.63924 23.3262C8.66666 23.601 8.46613 23.846 8.19136 23.8734L7.99278 21.8833ZM17.7213 9.52161C21.0117 8.85025 24.2544 9.80728 26.6366 11.8558L27.9406 10.3394C25.1122 7.90715 21.2465 6.76113 17.3215 7.56199L17.7213 9.52161ZM16.461 8.34666L16.5416 8.74172L18.5012 8.34188L18.4206 7.94682L16.461 8.34666ZM18.5012 8.34189L18.4206 7.94683L16.461 8.34666L16.5416 8.74172L18.5012 8.34189ZM9.30627 21.1055C8.74512 15.6708 12.3545 10.6166 17.7213 9.52162L17.3215 7.56199C10.9199 8.86811 6.65292 14.8808 7.31685 21.3109L9.30627 21.1055ZM7.96827 22.7516C8.79231 22.6665 9.39136 21.9295 9.30627 21.1055L7.31685 21.3109C7.28849 21.0362 7.48817 20.7905 7.76286 20.7622L7.96827 22.7516ZM6.32214 21.4136C6.40723 22.2376 7.14422 22.8367 7.96827 22.7516L7.76285 20.7622C8.03754 20.7338 8.2832 20.9335 8.31156 21.2082L6.32214 21.4136ZM17.1216 6.58218C10.2022 7.99395 5.60687 14.4863 6.32214 21.4136L8.31156 21.2082C7.69901 15.2757 11.6374 9.74234 17.5214 8.5418L17.1216 6.58218ZM28.5926 9.5812C25.5413 6.95719 21.3641 5.71654 17.1216 6.58218L17.5214 8.5418C21.1291 7.8057 24.6833 8.85718 27.2886 11.0976L28.5926 9.5812ZM28.7519 11.6965C29.292 11.0684 29.2207 10.1214 28.5926 9.5812L27.2886 11.0976C27.0792 10.9176 27.0554 10.6019 27.2355 10.3925L28.7519 11.6965ZM26.6366 11.8558C27.2647 12.396 28.2117 12.3247 28.7519 11.6965L27.2355 10.3925C27.4155 10.1831 27.7312 10.1594 27.9406 10.3394L26.6366 11.8558ZM30.1271 11.1311C29.593 10.4978 28.6467 10.4173 28.0134 10.9513L29.3026 12.4803C29.0915 12.6583 28.7761 12.6315 28.5981 12.4204L30.1271 11.1311ZM33.0888 17.3034C32.6188 14.9449 31.5731 12.846 30.1271 11.1311L28.5981 12.4204C29.831 13.8825 30.7247 15.6738 31.1274 17.6943L33.0888 17.3034ZM31.8132 18.5772L32.3036 18.4795L31.9127 16.5181L31.4223 16.6158L31.8132 18.5772ZM31.9127 16.5181L31.4223 16.6158L31.8132 18.5772L32.3036 18.4795L31.9127 16.5181ZM33.7155 26.6931C33.9146 23.6175 33.7194 20.4662 33.0888 17.3033L31.1274 17.6943C31.7236 20.6844 31.9076 23.6607 31.7196 26.5639L33.7155 26.6931ZM32.1217 28.0931C32.9484 28.1466 33.6619 27.5198 33.7155 26.6931L31.7196 26.5639C31.7375 26.2883 31.9753 26.0794 32.2509 26.0972L32.1217 28.0931ZM30.7217 26.4993C30.6682 27.326 31.295 28.0395 32.1217 28.0931L32.2509 26.0972C32.5265 26.1151 32.7354 26.3529 32.7175 26.6285L30.7217 26.4993ZM30.1467 17.8898C30.7256 20.7934 30.9041 23.6824 30.7217 26.4993L32.7175 26.6285C32.9111 23.6391 32.7215 20.5752 32.1081 17.4988L30.1467 17.8898ZM30.1463 17.8879L30.1463 17.8879L32.1085 17.5007L32.1085 17.5006L30.1463 17.8879ZM27.8336 13.065C28.9599 14.4007 29.7777 16.0382 30.1467 17.8897L32.1081 17.4988C31.6718 15.3093 30.702 13.3642 29.3626 11.7757L27.8336 13.065ZM28.0134 10.9513C27.3801 11.4853 27.2996 12.4317 27.8336 13.065L29.3626 11.7757C29.5406 11.9868 29.5138 12.3023 29.3026 12.4803L28.0134 10.9513ZM33.5674 28.3684C33.6597 27.5451 33.0672 26.8029 32.2439 26.7106L32.021 28.6981C31.7466 28.6673 31.5491 28.4199 31.5798 28.1455L33.5674 28.3684ZM31.4739 37.0475C32.5196 34.2813 33.231 31.3681 33.5674 28.3684L31.5798 28.1455C31.2623 30.9773 30.5907 33.728 29.6031 36.3403L31.4739 37.0475ZM29.5404 37.9202C30.3153 38.2131 31.181 37.8224 31.4739 37.0475L29.6031 36.3403C29.7008 36.082 29.9893 35.9518 30.2477 36.0494L29.5404 37.9202ZM28.6678 35.9867C28.3748 36.7616 28.7655 37.6273 29.5404 37.9202L30.2477 36.0494C30.506 36.1471 30.6362 36.4356 30.5385 36.6939L28.6678 35.9867ZM30.5861 28.034C30.2779 30.7819 29.6262 33.4513 28.6678 35.9867L30.5385 36.6939C31.5552 34.0047 32.2466 31.1727 32.5736 28.2569L30.5861 28.034ZM32.2439 26.7106C31.4206 26.6182 30.6784 27.2108 30.5861 28.034L32.5736 28.2569C32.5428 28.5314 32.2954 28.7289 32.021 28.6981L32.2439 26.7106Z" fill="#6C6CE6" mask="url(#path-16-inside-7_1_854)"/>
<mask id="path-18-inside-8_1_854" fill="white">
<path fill-rule="evenodd" clip-rule="evenodd" d="M34.5602 21.1331C34.8356 21.1125 35.0755 21.3191 35.0961 21.5945C35.4105 25.8091 35.0032 29.9493 33.9693 33.8732C33.899 34.1403 33.6255 34.2997 33.3584 34.2293C33.0914 34.159 32.932 33.8855 33.0023 33.6185C34.0085 29.7998 34.4049 25.7707 34.0988 21.6689C34.0783 21.3935 34.2849 21.1536 34.5602 21.1331ZM16.8457 5.17553C24.9506 3.52206 32.8364 8.83037 34.4708 17.0186L34.4708 17.0187C34.6267 17.8008 34.7569 18.5822 34.8622 19.3619C34.8991 19.6355 34.7072 19.8873 34.4335 19.9243C34.1599 19.9612 33.9081 19.7693 33.8711 19.4956C33.7687 18.7366 33.6419 17.9759 33.4902 17.2143M33.4901 17.2141C31.962 9.5589 24.5973 4.61471 17.0456 6.15535C16.775 6.21055 16.5109 6.03596 16.4557 5.76539C16.4005 5.49482 16.5751 5.23073 16.8457 5.17553M15.0585 6.17523C15.1587 6.43255 15.0314 6.72238 14.774 6.8226C8.54043 9.25032 4.75299 15.9437 6.11916 22.8012C6.7038 25.6952 5.61946 28.5395 3.53865 30.3235C3.32901 30.5033 3.01336 30.479 2.83362 30.2694C2.65388 30.0598 2.67812 29.7441 2.88776 29.5644C4.70359 28.0075 5.64948 25.525 5.13883 22.9985L5.13856 22.9972C3.67705 15.6627 7.72608 8.49432 14.4111 5.89077C14.6684 5.79056 14.9583 5.91791 15.0585 6.17523Z"/>
</mask>
<path d="M33.1971 17.6194C33.4209 17.7813 33.7335 17.7311 33.8953 17.5073C34.0571 17.2836 34.0069 16.971 33.7832 16.8092L33.1971 17.6194ZM33.1971 17.6193C33.4208 17.7811 33.7334 17.7309 33.8953 17.5072C34.0571 17.2834 34.0069 16.9708 33.7831 16.809L33.1971 17.6193ZM33.7832 16.8092L17.1387 4.7704L16.5526 5.58067L33.1971 17.6194L33.7832 16.8092ZM16.5526 5.58067L33.1971 17.6193L33.7831 16.809L17.1387 4.7704L16.5526 5.58067ZM35.0961 21.5945L36.0933 21.5201L35.0961 21.5945ZM34.5602 21.1331L34.4858 20.1358L34.5602 21.1331ZM33.9693 33.8732L34.9363 34.128L33.9693 33.8732ZM33.3584 34.2293L33.6132 33.2623L33.6132 33.2623L33.3584 34.2293ZM33.0023 33.6185L33.9693 33.8732L33.0023 33.6185ZM34.0988 21.6689L35.0961 21.5945L34.0988 21.6689ZM34.4708 17.0186L33.4902 17.2143L33.4905 17.2158L34.4708 17.0186ZM16.8457 5.17553L17.0456 6.15535L16.8457 5.17553ZM34.4708 17.0187L35.4516 16.8233L35.4512 16.8215L34.4708 17.0187ZM34.8622 19.3619L35.8532 19.2281V19.2281L34.8622 19.3619ZM34.4335 19.9243L34.2998 18.9332H34.2998L34.4335 19.9243ZM33.8711 19.4956L32.8801 19.6294L33.8711 19.4956ZM34.4709 17.0189C34.3629 16.4773 33.8364 16.1257 33.2947 16.2336C32.7531 16.3415 32.4015 16.8681 32.5094 17.4097L34.4709 17.0189ZM17.0456 6.15535L17.2454 7.13517V7.13517L17.0456 6.15535ZM32.5095 17.4099C32.6176 17.9515 33.1443 18.3029 33.6859 18.1948C34.2275 18.0867 34.5789 17.56 34.4708 17.0184L32.5095 17.4099ZM16.4557 5.76539L17.4355 5.5655V5.5655L16.4557 5.76539ZM14.774 6.8226L14.4111 5.89077L14.774 6.8226ZM15.0585 6.17523L15.9903 5.81232L15.0585 6.17523ZM6.11916 22.8012L5.13843 22.9966L5.13896 22.9992L6.11916 22.8012ZM3.53865 30.3235L4.18954 31.0827H4.18955L3.53865 30.3235ZM2.83362 30.2694L3.59279 29.6185H3.59279L2.83362 30.2694ZM2.88776 29.5644L3.53865 30.3235H3.53865L2.88776 29.5644ZM5.13883 22.9985L4.15838 23.1953L4.15865 23.1967L5.13883 22.9985ZM5.13856 22.9972L4.15784 23.1926L4.15811 23.194L5.13856 22.9972ZM14.4111 5.89077L14.0482 4.95895V4.95895L14.4111 5.89077ZM36.0933 21.5201C36.0317 20.6939 35.312 20.0742 34.4858 20.1358L34.6347 22.1303C34.3593 22.1508 34.1194 21.9442 34.0988 21.6689L36.0933 21.5201ZM34.9363 34.128C35.9979 30.0989 36.4162 25.8475 36.0933 21.5201L34.0988 21.6689C34.4049 25.7707 34.0085 29.7998 33.0023 33.6185L34.9363 34.128ZM33.1036 35.1963C33.9047 35.4074 34.7252 34.9291 34.9363 34.128L33.0023 33.6185C33.0727 33.3514 33.3462 33.192 33.6132 33.2623L33.1036 35.1963ZM32.0353 33.3637C31.8242 34.1647 32.3025 34.9853 33.1036 35.1963L33.6132 33.2623C33.8802 33.3327 34.0397 33.6062 33.9693 33.8732L32.0353 33.3637ZM33.1016 21.7433C33.3993 25.7324 33.0138 29.6502 32.0353 33.3637L33.9693 33.8732C35.0032 29.9493 35.4105 25.8091 35.0961 21.5945L33.1016 21.7433ZM34.4858 20.1358C33.6597 20.1975 33.04 20.9171 33.1016 21.7433L35.0961 21.5945C35.1166 21.8698 34.91 22.1097 34.6347 22.1303L34.4858 20.1358ZM35.4515 16.8228C33.7107 8.10187 25.3038 2.42939 16.6458 4.19572L17.0456 6.15535C24.5973 4.61472 31.9621 9.55886 33.4902 17.2143L35.4515 16.8228ZM35.4512 16.8215L35.4512 16.8213L33.4905 17.2158L33.4905 17.216L35.4512 16.8215ZM35.8532 19.2281C35.7452 18.4278 35.6115 17.6259 35.4516 16.8233L33.4901 17.2141C33.6419 17.9758 33.7687 18.7365 33.8711 19.4956L35.8532 19.2281ZM34.5673 20.9153C35.3882 20.8045 35.964 20.0491 35.8532 19.2281L33.8711 19.4956C33.8342 19.222 34.0261 18.9702 34.2998 18.9332L34.5673 20.9153ZM32.8801 19.6294C32.9909 20.4504 33.7463 21.0261 34.5673 20.9153L34.2998 18.9332C34.5734 18.8963 34.8252 19.0882 34.8622 19.3619L32.8801 19.6294ZM32.5094 17.4097C32.6571 18.1508 32.7805 18.891 32.8801 19.6294L34.8622 19.3619C34.7569 18.5822 34.6267 17.8009 34.4709 17.0189L32.5094 17.4097ZM17.2454 7.13517C24.2443 5.70734 31.0877 10.2876 32.5095 17.4099L34.4708 17.0184C32.8363 8.83018 24.9504 3.52209 16.8457 5.17553L17.2454 7.13517ZM15.4759 5.96528C15.6415 6.77699 16.4337 7.30077 17.2454 7.13517L16.8457 5.17553C17.1162 5.12034 17.3803 5.29493 17.4355 5.5655L15.4759 5.96528ZM16.6458 4.19572C15.8341 4.36131 15.3103 5.15357 15.4759 5.96528L17.4355 5.5655C17.4907 5.83607 17.3161 6.10015 17.0456 6.15535L16.6458 4.19572ZM15.1369 7.75442C15.9089 7.45378 16.291 6.58428 15.9903 5.81232L14.1267 6.53814C14.0265 6.28082 14.1538 5.99099 14.4111 5.89077L15.1369 7.75442ZM7.09989 22.6058C5.8287 16.2251 9.3546 10.0064 15.1369 7.75442L14.4111 5.89077C7.72626 8.49425 3.67727 15.6623 5.13843 22.9966L7.09989 22.6058ZM4.18955 31.0827C6.53543 29.0714 7.75832 25.8651 7.09936 22.6032L5.13896 22.9992C5.64928 25.5253 4.7035 28.0076 2.88776 29.5644L4.18955 31.0827ZM2.07445 30.9203C2.61367 31.5492 3.56063 31.6219 4.18954 31.0827L2.88776 29.5644C3.09739 29.3846 3.41305 29.4089 3.59279 29.6185L2.07445 30.9203ZM2.23687 28.8052C1.60795 29.3444 1.53523 30.2914 2.07445 30.9203L3.59279 29.6185C3.77253 29.8281 3.74829 30.1438 3.53865 30.3235L2.23687 28.8052ZM4.15865 23.1967C4.59497 25.3554 3.78744 27.4758 2.23686 28.8052L3.53865 30.3235C5.61974 28.5393 6.70398 25.6946 6.11901 22.8004L4.15865 23.1967ZM4.15811 23.194L4.15838 23.1953L6.11928 22.8018L6.11901 22.8004L4.15811 23.194ZM14.0482 4.95895C6.91191 7.73824 2.60132 15.3813 4.15784 23.1926L6.11928 22.8018C4.75278 15.944 8.54025 9.2504 14.774 6.8226L14.0482 4.95895ZM15.9903 5.81232C15.6897 5.04038 14.8202 4.65831 14.0482 4.95895L14.774 6.8226C14.5167 6.92281 14.2269 6.79545 14.1267 6.53814L15.9903 5.81232Z" fill="#6C6CE6" mask="url(#path-18-inside-8_1_854)"/>
<mask id="path-20-inside-9_1_854" fill="white">
<path fill-rule="evenodd" clip-rule="evenodd" d="M37.09 23.0335C37.3661 23.0276 37.5947 23.2466 37.6007 23.5226C37.6423 25.4502 37.5435 27.3585 37.3125 29.2355C37.2788 29.5096 37.0293 29.7044 36.7552 29.6707C36.4811 29.637 36.2863 29.3874 36.32 29.1134C36.5451 27.2836 36.6415 25.4233 36.6009 23.5442C36.595 23.2681 36.8139 23.0395 37.09 23.0335ZM16.3699 2.78649C22.5271 1.53029 28.5778 3.7365 32.5545 8.07478C32.7411 8.27835 32.7273 8.59463 32.5238 8.78122C32.3202 8.96782 32.0039 8.95406 31.8173 8.7505C28.0661 4.65825 22.3662 2.58372 16.5698 3.76631C11.1117 4.87989 6.83723 8.6221 4.77766 13.434C4.669 13.6878 4.37512 13.8055 4.12125 13.6969C3.86739 13.5882 3.74967 13.2943 3.85833 13.0405C6.03998 7.94339 10.5732 3.96915 16.3699 2.78649ZM3.57885 15.3005C3.84656 15.3683 4.00867 15.6402 3.94094 15.9079C3.34911 18.2472 3.2555 20.7548 3.75903 23.2823C4.11695 25.0474 3.56982 26.7854 2.44566 28.0126C2.25913 28.2162 1.94285 28.2301 1.73923 28.0435C1.53561 27.857 1.52175 27.5407 1.70828 27.3371C2.62597 26.3353 3.07077 24.9188 2.77882 23.4803L2.77848 23.4785C2.24507 20.8018 2.34387 18.1433 2.97149 15.6626C3.03922 15.3949 3.31114 15.2328 3.57885 15.3005Z"/>
</mask>
<path d="M37.6007 23.5226L36.6009 23.5442L37.6007 23.5226ZM37.09 23.0335L37.0684 22.0338L37.09 23.0335ZM37.3125 29.2355L36.32 29.1134L37.3125 29.2355ZM36.7552 29.6707L36.8773 28.6782L36.7552 29.6707ZM36.32 29.1134L37.3125 29.2355L36.32 29.1134ZM36.6009 23.5442L35.6012 23.5658L36.6009 23.5442ZM32.5545 8.07478L33.2916 7.39907V7.39907L32.5545 8.07478ZM16.3699 2.78649L16.17 1.80668L16.17 1.80668L16.3699 2.78649ZM32.5238 8.78122L33.1995 9.51838L33.1995 9.51838L32.5238 8.78122ZM31.8173 8.7505L32.5545 8.07478V8.07478L31.8173 8.7505ZM16.5698 3.76631L16.3699 2.78649L16.3699 2.78649L16.5698 3.76631ZM4.77766 13.434L5.69699 13.8275H5.69699L4.77766 13.434ZM4.12125 13.6969L4.51474 12.7776L4.51474 12.7776L4.12125 13.6969ZM3.85833 13.0405L4.77766 13.434H4.77766L3.85833 13.0405ZM3.94094 15.9079L2.97149 15.6626H2.97149L3.94094 15.9079ZM3.57885 15.3005L3.33358 16.27H3.33358L3.57885 15.3005ZM3.75903 23.2823L2.77829 23.4777L2.77897 23.481L3.75903 23.2823ZM2.44566 28.0126L1.70828 27.3371L1.70827 27.3371L2.44566 28.0126ZM1.73923 28.0435L1.06376 28.7809L1.06376 28.7809L1.73923 28.0435ZM1.70828 27.3371L0.970892 26.6616L0.970891 26.6616L1.70828 27.3371ZM2.77882 23.4803L1.79846 23.6775L1.7988 23.6792L2.77882 23.4803ZM2.77848 23.4785L1.79776 23.674L1.79811 23.6757L2.77848 23.4785ZM2.97149 15.6626L3.94094 15.9079V15.9079L2.97149 15.6626ZM38.6005 23.5011C38.5826 22.6728 37.8967 22.0159 37.0684 22.0338L37.1116 24.0333C36.8355 24.0393 36.6069 23.8203 36.6009 23.5442L38.6005 23.5011ZM38.305 29.3576C38.5418 27.4334 38.6431 25.477 38.6005 23.5011L36.6009 23.5442C36.6415 25.4233 36.5451 27.2836 36.32 29.1134L38.305 29.3576ZM36.6331 30.6632C37.4553 30.7644 38.2039 30.1798 38.305 29.3576L36.32 29.1134C36.3537 28.8393 36.6032 28.6444 36.8773 28.6782L36.6331 30.6632ZM35.3275 28.9913C35.2263 29.8135 35.8109 30.562 36.6331 30.6632L36.8773 28.6782C37.1514 28.7119 37.3462 28.9614 37.3125 29.2355L35.3275 28.9913ZM35.6012 23.5658C35.6407 25.3965 35.5468 27.2088 35.3275 28.9913L37.3125 29.2355C37.5435 27.3585 37.6423 25.4502 37.6007 23.5226L35.6012 23.5658ZM37.0684 22.0338C36.2402 22.0516 35.5833 22.7375 35.6012 23.5658L37.6007 23.5226C37.6066 23.7987 37.3877 24.0273 37.1116 24.0333L37.0684 22.0338ZM33.2916 7.39907C29.0895 2.8148 22.6881 0.476845 16.17 1.80668L16.5698 3.76631C22.3661 2.58373 28.0661 4.6582 31.8173 8.7505L33.2916 7.39907ZM33.1995 9.51838C33.8102 8.9586 33.8514 8.00975 33.2916 7.39907L31.8173 8.7505C31.6307 8.54694 31.6445 8.23066 31.848 8.04407L33.1995 9.51838ZM31.0801 9.42622C31.6399 10.0369 32.5888 10.0782 33.1995 9.51838L31.848 8.04406C32.0516 7.85747 32.3679 7.87122 32.5545 8.07478L31.0801 9.42622ZM16.7697 4.74612C22.2053 3.63714 27.5545 5.58003 31.0801 9.42622L32.5545 8.07478C28.5777 3.73646 22.5271 1.5303 16.3699 2.78649L16.7697 4.74612ZM5.69699 13.8275C7.63446 9.30085 11.6501 5.79064 16.7697 4.74612L16.3699 2.78649C10.5733 3.96914 6.04 7.94334 3.85833 13.0405L5.69699 13.8275ZM3.72776 14.6162C4.48936 14.9422 5.37101 14.5891 5.69699 13.8275L3.85833 13.0405C3.96699 12.7866 4.26088 12.6689 4.51474 12.7776L3.72776 14.6162ZM2.939 12.647C2.61303 13.4086 2.96616 14.2902 3.72776 14.6162L4.51474 12.7776C4.76861 12.8862 4.88632 13.1801 4.77766 13.434L2.939 12.647ZM16.17 1.80668C10.0347 3.05843 5.24271 7.26473 2.939 12.647L4.77766 13.434C6.83725 8.62205 11.1118 4.87988 16.5698 3.76631L16.17 1.80668ZM4.9104 16.1532C5.11358 15.3501 4.62724 14.5343 3.82412 14.3311L3.33358 16.27C3.06587 16.2023 2.90376 15.9303 2.97149 15.6626L4.9104 16.1532ZM4.73975 23.0869C4.2659 20.7084 4.35427 18.3513 4.9104 16.1532L2.97149 15.6626C2.34394 18.1431 2.2451 20.8012 2.7783 23.4777L4.73975 23.0869ZM3.18305 28.688C4.51375 27.2354 5.1633 25.1757 4.73908 23.0835L2.77897 23.481C3.0706 24.9192 2.6259 26.3354 1.70828 27.3371L3.18305 28.688ZM1.06376 28.7809C1.67463 29.3405 2.62346 29.2989 3.18305 28.688L1.70827 27.3371C1.8948 27.1335 2.21108 27.1196 2.4147 27.3061L1.06376 28.7809ZM0.970891 26.6616C0.411312 27.2725 0.452889 28.2213 1.06376 28.7809L2.41471 27.3061C2.61833 27.4927 2.63219 27.809 2.44566 28.0126L0.970891 26.6616ZM1.7988 23.6792C2.02444 24.791 1.68183 25.8855 0.970892 26.6616L2.44566 28.0126C3.57011 26.7851 4.11711 25.0467 3.75885 23.2814L1.7988 23.6792ZM1.79811 23.6757L1.79846 23.6775L3.75919 23.2831L3.75884 23.2814L1.79811 23.6757ZM2.00203 15.4174C1.3387 18.0392 1.23467 20.8483 1.79776 23.674L3.75919 23.2831C3.25548 20.7554 3.34904 18.2474 3.94094 15.9079L2.00203 15.4174ZM3.82412 14.3311C3.021 14.1279 2.20522 14.6142 2.00203 15.4174L3.94094 15.9079C3.87321 16.1756 3.60129 16.3377 3.33358 16.27L3.82412 14.3311Z" fill="#6C6CE6" mask="url(#path-20-inside-9_1_854)"/>
<path d="M36.9625 20.9771C36.8374 19.5353 36.632 18.0859 36.3426 16.6339C35.8859 14.348 34.9978 12.2617 33.7816 10.4443" stroke="#6C6CE6" stroke-linecap="round"/>
</svg>
